# xmcd CD database file
#
# Track frame offsets:
#	150
#	25087
#	50330
#	74257
#	87712
#	102204
#	126822
#	153190
#	181822
#	206480
#	253372
#
# Disc length: 3564 seconds
#
# Revision: 0
# Processed by: cddbd v1.5.2PL0 Copyright (c) Steve Scherf et al.
# Submitted via: CDex 1.51
#
DISCID=930dea0b
DTITLE=Brandicity - Long Distance
DYEAR=1900
DGENRE=Jazz
TTITLE0=Paulinchen
TTITLE1=Concordia
TTITLE2=Suite (1. Teil)
TTITLE3=Suite (2. Teil)
TTITLE4=Suite (3. Teil)
TTITLE5=Hues
TTITLE6=Cool
TTITLE7=Fascinating Rhythm
TTITLE8=154
TTITLE9=Long Distance
TTITLE10=H. B.
EXTD=
EXTT0=
EXTT1=
EXTT2=
EXTT3=
EXTT4=
EXTT5=
EXTT6=
EXTT7=
EXTT8=
EXTT9=
EXTT10=
PLAYORDER=
